<svg version="1.1" xmlns="http://www.w3.org/2000/svg" viewBox="0 0 634.57421875 278.60078125" width="1269.1484375" height="557.2015625">
  <!-- svg-source:excalidraw -->
  
  <defs>
    <style class="style-fonts">
      @font-face {
        font-family: "Virgil";
        src: url("https://excalidraw.com/Virgil.woff2");
      }
      @font-face {
        font-family: "Cascadia";
        src: url("https://excalidraw.com/Cascadia.woff2");
      }
      @font-face {
        font-family: "Assistant";
        src: url("https://excalidraw.com/Assistant-Regular.woff2");
      }
    </style>
    
  </defs>
  <rect x="0" y="0" width="634.57421875" height="278.60078125" fill="#ffffff"></rect><g transform="translate(31.19140625 11.859375) rotate(0 17.578125 12)"><text x="0" y="0" font-family="Cascadia, Segoe UI Emoji" font-size="20px" fill="#1e1e1e" text-anchor="start" style="white-space: pre;" direction="ltr" dominant-baseline="text-before-edge">Web</text></g><g transform="translate(182.1875 10) rotate(0 99.609375 12)"><text x="0" y="0" font-family="Cascadia, Segoe UI Emoji" font-size="20px" fill="#1e1e1e" text-anchor="start" style="white-space: pre;" direction="ltr" dominant-baseline="text-before-edge">Hybrid (Embedded)</text></g><g transform="translate(486.328125 10.1640625) rotate(0 35.15625 12)"><text x="0" y="0" font-family="Cascadia, Segoe UI Emoji" font-size="20px" fill="#1e1e1e" text-anchor="start" style="white-space: pre;" direction="ltr" dominant-baseline="text-before-edge">Native</text></g><g stroke-linecap="round" transform="translate(10 66.47265625) rotate(0 44.955078125 39.953125)"><path d="M19.98 0 C30.16 1.21, 46.28 2.31, 69.93 0 C81.51 0.89, 92.94 4.95, 89.91 19.98 C88.37 29.42, 90.53 40.22, 89.91 59.93 C91.5 76.35, 85.72 79.6, 69.93 79.91 C53.25 82.61, 28.37 77.65, 19.98 79.91 C3.21 82.05, 3.56 72.89, 0 59.93 C-2.12 41.03, 3.13 31.05, 0 19.98 C-2.49 7.63, 3.71 -3.12, 19.98 0" stroke="none" stroke-width="0" fill="#ffc9c9"></path><path d="M19.98 0 C36.59 1.19, 52.94 -0.56, 69.93 0 M19.98 0 C37.07 0.64, 52.52 -0.06, 69.93 0 M69.93 0 C81.5 0.49, 91.7 8.43, 89.91 19.98 M69.93 0 C82.71 1.16, 91.33 5.53, 89.91 19.98 M89.91 19.98 C88.51 33.42, 90.64 48.86, 89.91 59.93 M89.91 19.98 C89.62 29.39, 89.3 37.09, 89.91 59.93 M89.91 59.93 C89.65 74.72, 81.62 80.42, 69.93 79.91 M89.91 59.93 C89.47 75.3, 83.86 80.44, 69.93 79.91 M69.93 79.91 C51.18 79.51, 32.92 81.78, 19.98 79.91 M69.93 79.91 C57.78 78.81, 44.62 80.42, 19.98 79.91 M19.98 79.91 C6.8 79.33, 1.05 71.34, 0 59.93 M19.98 79.91 C7.14 81.9, 0.97 75.07, 0 59.93 M0 59.93 C-0.66 48.78, -0.83 39.94, 0 19.98 M0 59.93 C0.06 50.45, -0.51 40.88, 0 19.98 M0 19.98 C-1.58 4.89, 4.94 1.55, 19.98 0 M0 19.98 C0.72 4.67, 6.45 1.69, 19.98 0" stroke="#e03131" stroke-width="2" fill="none"></path></g><g stroke-linecap="round" transform="translate(212.12109375 54.55078125) rotate(0 68.47265625 59.98046875)"><path d="M29.99 0 C55.91 -2.39, 85.27 -0.31, 106.96 0 C127.53 2.72, 140.38 13.02, 136.95 29.99 C135.77 52.73, 137.97 71.74, 136.95 89.97 C135.84 111.44, 125.79 120.66, 106.96 119.96 C82.91 117.52, 60.89 118.41, 29.99 119.96 C10.6 118.88, 2.06 109.59, 0 89.97 C-0.17 74.3, -2.53 63.24, 0 29.99 C-1.3 11.3, 7.68 -0.72, 29.99 0" stroke="none" stroke-width="0" fill="#a5d8ff"></path><path d="M29.99 0 C46.49 -2.02, 64.57 0.74, 106.96 0 M29.99 0 C54.92 0.85, 79.48 0.28, 106.96 0 M106.96 0 C127.55 0.81, 137.63 11.01, 136.95 29.99 M106.96 0 C125.1 2.05, 136.51 9.38, 136.95 29.99 M136.95 29.99 C137.51 49.38, 135.38 69.98, 136.95 89.97 M136.95 29.99 C136.46 45.34, 137.18 60.65, 136.95 89.97 M136.95 89.97 C137.71 111.64, 128.17 121.15, 106.96 119.96 M136.95 89.97 C137.66 107.9, 125.4 119.52, 106.96 119.96 M106.96 119.96 C86.62 120.62, 70.86 121.76, 29.99 119.96 M106.96 119.96 C84.88 120.1, 62.98 119.63, 29.99 119.96 M29.99 119.96 C10.12 120.86, -1.49 109.38, 0 89.97 M29.99 119.96 C7.78 119.46, -2.16 111.11, 0 89.97 M0 89.97 C-0.61 74.84, 1.13 59.32, 0 29.99 M0 89.97 C-0.15 77.12, 0.28 63.34, 0 29.99 M0 29.99 C0.46 11.27, 10.96 1.23, 29.99 0 M0 29.99 C1.26 8.67, 11.71 0.97, 29.99 0" stroke="#1971c2" stroke-width="2" fill="none"></path></g><g stroke-linecap="round" transform="translate(456.890625 51.5390625) rotate(0 68.47265625 59.98046875)"><path d="M29.99 0 C55.05 -0.26, 75.07 -2.47, 106.96 0 C129.84 -2.67, 137.44 11.33, 136.95 29.99 C135.47 51.69, 135.35 67.22, 136.95 89.97 C138.49 110.84, 127.96 120.7, 106.96 119.96 C79.53 121.85, 44.01 119.56, 29.99 119.96 C7 117.53, -3.37 110.89, 0 89.97 C-0.07 70.87, -0.52 47.65, 0 29.99 C-1.73 6.51, 13.37 -0.09, 29.99 0" stroke="none" stroke-width="0" fill="#a5d8ff"></path><path d="M29.99 0 C48.61 -0.76, 65.78 -1.77, 106.96 0 M29.99 0 C50.72 -1.1, 71.96 -0.92, 106.96 0 M106.96 0 C127.25 0.83, 137.44 8.22, 136.95 29.99 M106.96 0 C128.77 0.88, 135.07 9.56, 136.95 29.99 M136.95 29.99 C135.12 51.32, 136.34 76.16, 136.95 89.97 M136.95 29.99 C137.09 46.08, 138.19 60.55, 136.95 89.97 M136.95 89.97 C135.88 108.07, 127.44 121.42, 106.96 119.96 M136.95 89.97 C138.51 111.52, 126.24 119.45, 106.96 119.96 M106.96 119.96 C86.48 119.46, 64.81 121.51, 29.99 119.96 M106.96 119.96 C84.21 121.36, 62.8 119.84, 29.99 119.96 M29.99 119.96 C8.59 119.2, 1.02 108.42, 0 89.97 M29.99 119.96 C12.15 118.6, 0.31 108.15, 0 89.97 M0 89.97 C0.22 70.82, 1.5 49.85, 0 29.99 M0 89.97 C0.59 72.13, 0.56 53.53, 0 29.99 M0 29.99 C-1.33 9.79, 10.73 -1.8, 29.99 0 M0 29.99 C2.02 8.6, 10.44 2.01, 29.99 0" stroke="#1971c2" stroke-width="2" fill="none"></path></g><g transform="translate(465.19921875 184.98203124999998) rotate(0 79.6875 28.80000000000001)"><text x="0" y="0" font-family="Cascadia, Segoe UI Emoji" font-size="16px" fill="#1e1e1e" text-anchor="start" style="white-space: pre;" direction="ltr" dominant-baseline="text-before-edge">React Native (JS)</text><text x="0" y="19.2" font-family="Cascadia, Segoe UI Emoji" font-size="16px" fill="#1e1e1e" text-anchor="start" style="white-space: pre;" direction="ltr" dominant-baseline="text-before-edge">Flutter (Dart)</text><text x="0" y="38.4" font-family="Cascadia, Segoe UI Emoji" font-size="16px" fill="#1e1e1e" text-anchor="start" style="white-space: pre;" direction="ltr" dominant-baseline="text-before-edge">ios (Swift)</text></g><g transform="translate(206.05859375 191.80078125) rotate(0 89.0625 38.400000000000006)"><text x="0" y="0" font-family="Cascadia, Segoe UI Emoji" font-size="16px" fill="#1e1e1e" text-anchor="start" style="white-space: pre;" direction="ltr" dominant-baseline="text-before-edge">Apache Cordova (JS)</text><text x="0" y="19.2" font-family="Cascadia, Segoe UI Emoji" font-size="16px" fill="#1e1e1e" text-anchor="start" style="white-space: pre;" direction="ltr" dominant-baseline="text-before-edge">Electron (JS)</text><text x="0" y="38.4" font-family="Cascadia, Segoe UI Emoji" font-size="16px" fill="#1e1e1e" text-anchor="start" style="white-space: pre;" direction="ltr" dominant-baseline="text-before-edge">ionic (JS)</text><text x="0" y="57.599999999999994" font-family="Cascadia, Segoe UI Emoji" font-size="16px" fill="#1e1e1e" text-anchor="start" style="white-space: pre;" direction="ltr" dominant-baseline="text-before-edge"></text></g><g stroke-linecap="round" transform="translate(31.23828125 85.59375) rotate(0 23.099609375 7.15234375)"><path d="M3.58 0 C17.53 1.61, 32.14 1.41, 42.62 0 C46.23 -0.36, 45.04 2.1, 46.2 3.58 C46.69 6.05, 45.57 9.07, 46.2 10.73 C45.08 12.47, 42.87 11.8, 42.62 14.3 C27.79 11.87, 15.25 15.23, 3.58 14.3 C-0.2 16.9, -1.35 10.78, 0 10.73 C-0.55 8.14, 0.71 7.26, 0 3.58 C0.65 3.32, -0.14 1.89, 3.58 0" stroke="none" stroke-width="0" fill="#b2f2bb"></path><path d="M3.58 0 C16.63 -0.3, 30.08 1.01, 42.62 0 M3.58 0 C13.17 0.02, 22.93 0.38, 42.62 0 M42.62 0 C45.33 -0.94, 46.66 1.63, 46.2 3.58 M42.62 0 C45.88 0.34, 46.77 1.32, 46.2 3.58 M46.2 3.58 C46.46 5.33, 46.01 6.77, 46.2 10.73 M46.2 3.58 C46.11 5.53, 46.39 7.31, 46.2 10.73 M46.2 10.73 C46.82 12.25, 44.16 14.29, 42.62 14.3 M46.2 10.73 C45.07 13.46, 45.58 13.59, 42.62 14.3 M42.62 14.3 C30.95 13.27, 21.4 14.5, 3.58 14.3 M42.62 14.3 C32.23 14.8, 22.14 14.08, 3.58 14.3 M3.58 14.3 C0.46 14.67, -0.06 12.52, 0 10.73 M3.58 14.3 C1.15 13.17, -0.3 12.12, 0 10.73 M0 10.73 C0.05 9.37, 0.04 7.6, 0 3.58 M0 10.73 C-0.1 8.21, -0.18 5.55, 0 3.58 M0 3.58 C-0.7 1.65, 2.18 -0.39, 3.58 0 M0 3.58 C-0.89 1.36, 0.87 -0.5, 3.58 0" stroke="#2f9e44" stroke-width="2" fill="none"></path></g><g stroke-linecap="round" transform="translate(31.322265625 110.2734375) rotate(0 23.099609375 7.15234375)"><path d="M3.58 0 C14.85 2.62, 19.36 -0.97, 42.62 0 C43.46 1.11, 48.6 0.9, 46.2 3.58 C46.48 5.7, 46.54 9.3, 46.2 10.73 C48.51 14.05, 44.28 12.99, 42.62 14.3 C33.84 14.03, 22.01 15.05, 3.58 14.3 C2.21 15.1, 0.18 14.57, 0 10.73 C-0.64 9.61, 0.19 7.44, 0 3.58 C-0.31 -1, 0.83 -1.56, 3.58 0" stroke="none" stroke-width="0" fill="#b2f2bb"></path><path d="M3.58 0 C12.84 0.05, 20.47 0.04, 42.62 0 M3.58 0 C12.19 -0.31, 21.29 -0.54, 42.62 0 M42.62 0 C44.11 -0.7, 46.66 2.18, 46.2 3.58 M42.62 0 C44.55 -0.89, 46.37 0.87, 46.2 3.58 M46.2 3.58 C46.14 5.28, 46.43 7.07, 46.2 10.73 M46.2 3.58 C46.14 6.14, 46.37 8.4, 46.2 10.73 M46.2 10.73 C45.78 13.74, 44.69 13.72, 42.62 14.3 M46.2 10.73 C46.13 12.62, 44.72 13.36, 42.62 14.3 M42.62 14.3 C34.17 13.68, 25.89 13.93, 3.58 14.3 M42.62 14.3 C28.87 14.05, 15.6 14.44, 3.58 14.3 M3.58 14.3 C2 13.7, -0.51 13.87, 0 10.73 M3.58 14.3 C2.12 14.59, 0.94 12.53, 0 10.73 M0 10.73 C0.34 8.03, 0 5.43, 0 3.58 M0 10.73 C-0.03 8, -0.05 5.42, 0 3.58 M0 3.58 C0.86 0.58, 0.37 0.26, 3.58 0 M0 3.58 C0.36 1.64, 1.07 0.02, 3.58 0" stroke="#2f9e44" stroke-width="2" fill="none"></path></g><g stroke-linecap="round" transform="translate(237.650390625 75.74609375) rotate(0 44.955078125 39.953125)"><path d="M19.98 0 C39.51 0.61, 61.16 -3.39, 69.93 0 C85.35 1.14, 89.81 6.18, 89.91 19.98 C88.21 37.28, 91.16 49.51, 89.91 59.93 C92.8 75.94, 79.92 77.26, 69.93 79.91 C60.01 77.69, 46.57 81.63, 19.98 79.91 C6.9 82.03, -1.54 73.68, 0 59.93 C-1.43 50, -1.31 37.41, 0 19.98 C2.87 6.49, 7.06 3.19, 19.98 0" stroke="none" stroke-width="0" fill="#ffc9c9"></path><path d="M19.98 0 C37.52 1.55, 54.49 -0.78, 69.93 0 M19.98 0 C32.89 0.2, 44.69 -0.81, 69.93 0 M69.93 0 C83.65 0.78, 90.53 6.8, 89.91 19.98 M69.93 0 C84.54 -1.88, 87.63 5.87, 89.91 19.98 M89.91 19.98 C89.74 28.56, 88.42 37.35, 89.91 59.93 M89.91 19.98 C90.67 29.75, 90.59 40, 89.91 59.93 M89.91 59.93 C91.38 75.01, 83.85 80.46, 69.93 79.91 M89.91 59.93 C91.51 71.32, 82.43 79.85, 69.93 79.91 M69.93 79.91 C48.96 80.66, 29.53 78.85, 19.98 79.91 M69.93 79.91 C58.17 80.9, 46.61 79.96, 19.98 79.91 M19.98 79.91 C8.02 81.27, 0.3 72.92, 0 59.93 M19.98 79.91 C6.34 79.62, 0.2 75.28, 0 59.93 M0 59.93 C-1.6 46.65, 0.78 35.54, 0 19.98 M0 59.93 C0.28 46.45, -0.91 32.88, 0 19.98 M0 19.98 C-1.72 5.85, 4.75 -1.66, 19.98 0 M0 19.98 C2.2 8.34, 7.94 -1.98, 19.98 0" stroke="#e03131" stroke-width="2" fill="none"></path></g><g stroke-linecap="round" transform="translate(258.888671875 94.8671875) rotate(0 23.099609375 7.15234375)"><path d="M3.58 0 C18.11 -2.37, 31.02 0.7, 42.62 0 C44.94 -0.34, 47.8 2.49, 46.2 3.58 C46.37 6.09, 46.89 8.96, 46.2 10.73 C43.79 11.2, 42.51 11.81, 42.62 14.3 C26.57 14.8, 15.02 15.45, 3.58 14.3 C0.08 14.61, -0.88 13.91, 0 10.73 C-0.25 8.52, 0.77 6.93, 0 3.58 C0.29 3.5, -0.33 0.41, 3.58 0" stroke="none" stroke-width="0" fill="#b2f2bb"></path><path d="M3.58 0 C17.41 -0.45, 30.01 -0.82, 42.62 0 M3.58 0 C14.89 -0.46, 26.5 0.16, 42.62 0 M42.62 0 C45.31 0.07, 46.76 0.38, 46.2 3.58 M42.62 0 C43.86 -0.39, 45.29 1.75, 46.2 3.58 M46.2 3.58 C45.89 5.75, 45.98 8.15, 46.2 10.73 M46.2 3.58 C46.32 5.17, 46.35 6.63, 46.2 10.73 M46.2 10.73 C46.5 13.39, 45.7 13.46, 42.62 14.3 M46.2 10.73 C45.79 13.09, 46.15 13.86, 42.62 14.3 M42.62 14.3 C28.28 13.67, 13.75 13.36, 3.58 14.3 M42.62 14.3 C30.58 14.49, 18.81 14.83, 3.58 14.3 M3.58 14.3 C1.34 14.14, -0.14 12.99, 0 10.73 M3.58 14.3 C1.29 15.32, -0.18 13.99, 0 10.73 M0 10.73 C0.22 7.73, 0.17 5.3, 0 3.58 M0 10.73 C-0.18 9.09, -0.16 7.31, 0 3.58 M0 3.58 C-0.95 0.36, 2.15 0.73, 3.58 0 M0 3.58 C0.64 0.2, 2.23 0.52, 3.58 0" stroke="#2f9e44" stroke-width="2" fill="none"></path></g><g stroke-linecap="round" transform="translate(258.97265625 119.546875) rotate(0 23.099609375 7.15234375)"><path d="M3.58 0 C17.78 1.26, 28.88 0.09, 42.62 0 C46.61 1.3, 46.93 -0.3, 46.2 3.58 C46.97 6.99, 45.36 8.32, 46.2 10.73 C43.7 10.61, 46.46 14.49, 42.62 14.3 C34.04 16.01, 23.99 14.79, 3.58 14.3 C0.31 15.11, -0.97 12.24, 0 10.73 C0.77 8.4, 0.13 6.98, 0 3.58 C-1.53 1.6, 3.73 -1.22, 3.58 0" stroke="none" stroke-width="0" fill="#b2f2bb"></path><path d="M3.58 0 C18.25 -0.59, 33.85 0.51, 42.62 0 M3.58 0 C16.01 0.36, 28.41 0.2, 42.62 0 M42.62 0 C45.57 -0.82, 45.21 0.85, 46.2 3.58 M42.62 0 C44.1 0.55, 46.32 0.99, 46.2 3.58 M46.2 3.58 C45.95 5.77, 45.82 7.91, 46.2 10.73 M46.2 3.58 C46.35 6.01, 46.27 8.18, 46.2 10.73 M46.2 10.73 C46.89 12.27, 44.65 14.28, 42.62 14.3 M46.2 10.73 C47.35 12.66, 45.71 13.73, 42.62 14.3 M42.62 14.3 C29.38 13.18, 17.54 14.1, 3.58 14.3 M42.62 14.3 C27.56 14.65, 11.89 14.22, 3.58 14.3 M3.58 14.3 C1.06 14.18, 0.09 14, 0 10.73 M3.58 14.3 C1.01 15.18, 0.89 12.37, 0 10.73 M0 10.73 C0.13 9.25, -0.26 7.91, 0 3.58 M0 10.73 C-0.12 8.4, -0.14 6.08, 0 3.58 M0 3.58 C0.96 1.92, 1.75 -0.86, 3.58 0 M0 3.58 C1.04 1.71, 1.56 0.01, 3.58 0" stroke="#2f9e44" stroke-width="2" fill="none"></path></g><g stroke-linecap="round" transform="translate(502.0263671875 89.4140625) rotate(0 23.099609375 7.15234375)"><path d="M3.58 0 C20.03 -0.74, 31.27 1.84, 42.62 0 C43.02 -0.53, 45.8 2.51, 46.2 3.58 C46.45 4.38, 46.39 6.04, 46.2 10.73 C43.99 11.94, 44.67 12.35, 42.62 14.3 C27.37 11.95, 18.44 14.01, 3.58 14.3 C2.68 11.94, -0.12 13.71, 0 10.73 C-0.67 8.13, -0.03 7.05, 0 3.58 C0.08 0, 1.02 2.3, 3.58 0" stroke="none" stroke-width="0" fill="#b2f2bb"></path><path d="M3.58 0 C16.73 0.88, 30.04 0.4, 42.62 0 M3.58 0 C17.39 0.15, 30.31 -0.4, 42.62 0 M42.62 0 C45.46 0.83, 46.95 0.69, 46.2 3.58 M42.62 0 C44.12 0.89, 45.38 1.4, 46.2 3.58 M46.2 3.58 C45.92 6.26, 46.25 9.45, 46.2 10.73 M46.2 3.58 C46.24 5.76, 46.11 7.76, 46.2 10.73 M46.2 10.73 C45.98 12.34, 44.34 15.1, 42.62 14.3 M46.2 10.73 C46.62 13.94, 45.39 15.09, 42.62 14.3 M42.62 14.3 C31.3 14.71, 19.71 13.95, 3.58 14.3 M42.62 14.3 C28.33 13.98, 14.01 14.29, 3.58 14.3 M3.58 14.3 C1.12 13.89, 0.56 13.28, 0 10.73 M3.58 14.3 C2.14 14.4, -1.05 13.42, 0 10.73 M0 10.73 C0.25 9.18, 0.29 7.16, 0 3.58 M0 10.73 C-0.07 9.18, -0.02 7.63, 0 3.58 M0 3.58 C-0.03 0.77, 2.14 0.52, 3.58 0 M0 3.58 C0.23 0.45, 1.03 -0.68, 3.58 0" stroke="#2f9e44" stroke-width="2" fill="none"></path></g><g stroke-linecap="round" transform="translate(502.1103515625 114.09375) rotate(0 23.099609375 7.15234375)"><path d="M3.58 0 C12.67 1.74, 20.32 -0.33, 42.62 0 C44.61 1.32, 44.36 0.62, 46.2 3.58 C46.44 4.86, 45.44 7.37, 46.2 10.73 C45.86 11.16, 45.89 15.6, 42.62 14.3 C34.74 13.85, 24.57 11.53, 3.58 14.3 C1.07 14.91, 0.53 11.8, 0 10.73 C-0.01 8.89, 0.1 4.81, 0 3.58 C-0.17 3.49, 0.51 -1.8, 3.58 0" stroke="none" stroke-width="0" fill="#b2f2bb"></path><path d="M3.58 0 C13.19 0.11, 21.5 0.65, 42.62 0 M3.58 0 C13.68 -0.5, 24.3 0.39, 42.62 0 M42.62 0 C45.76 -0.5, 45.43 1.96, 46.2 3.58 M42.62 0 C44.19 0.21, 47.3 0.26, 46.2 3.58 M46.2 3.58 C46.26 6.48, 46.17 8.63, 46.2 10.73 M46.2 3.58 C46.15 4.92, 46.17 6.3, 46.2 10.73 M46.2 10.73 C45.53 13.9, 45.37 15.03, 42.62 14.3 M46.2 10.73 C46.58 13.9, 44.91 13.92, 42.62 14.3 M42.62 14.3 C27.11 13.81, 12.59 13.48, 3.58 14.3 M42.62 14.3 C30.98 14.15, 18.71 13.96, 3.58 14.3 M3.58 14.3 C1.75 14.47, 0.83 13.19, 0 10.73 M3.58 14.3 C0.15 14.61, -0.48 13.51, 0 10.73 M0 10.73 C0.27 8.49, -0.37 5.76, 0 3.58 M0 10.73 C-0.03 7.72, 0.01 4.95, 0 3.58 M0 3.58 C0.95 1.71, 1.39 -0.65, 3.58 0 M0 3.58 C-0.16 0.52, 1.86 0.1, 3.58 0" stroke="#2f9e44" stroke-width="2" fill="none"></path></g></svg>